<svg version="1.2" xmlns="http://www.w3.org/2000/svg" viewBox="0 0 1024 1024" width="1024" height="1024">
	<title>30+P754281055347341181</title>
	<style>
		.s0 { fill: #1068af } 
		.s1 { fill: #26a03d } 
	</style>
	<g id="图层 1">
		<g id="&lt;Group&gt;">
			<g id="&lt;Group&gt;">
				<path id="&lt;Path&gt;" class="s0" d="m643.3 187c0 0-30.4-16.6-59.6-8.4l-484.9 134.8 128.8-225.1c0 0 18.9-36.6 91.7-35.3l405 0.6-77.5 135.5"/>
			</g>
			<g id="&lt;Group&gt;">
				<path id="&lt;Path&gt;" class="s0" d="m803.8 96l-82.2 143.8c0 0 20.7 19 26.6 40.6l72.1 275.9-278.2 84.3 100.2-160-31.3-120.7c0 0-16.4-47.7-64-42.1q-1.1 0.1-2.2 0.3c-49.3 7.4-507.2 135-507.2 135 0 0-36 10.2-37.6 46.1 0 0-0.6 38.7 22.6 74.1l203 349 74.6-130.4c0 0-23.7-21.3-26-32.1l-82-292.9 274.9-78.6c0 0 14.9-7.4 20.9 5.6l-120 150.3 40.9 134.4c0 0 17.8 29.6 59.6 29.8l528.6-144.9c0 0 35.1-6.7 25.1-59.8 0 0 1.5-19.8-14.8-52.1z"/>
			</g>
			<g id="&lt;Group&gt;">
				<path id="&lt;Path&gt;" class="s1" d="m371.2 833.6c0 0 28.1 12 46.3 11.2l510.7-140.6-117.2 204.8c0 0-28.5 57.2-96.4 57.1l-422.5 5.7z"/>
			</g>
		</g>
	</g>
</svg>